<svg xmlns="http://www.w3.org/2000/svg" viewBox="0 0 240 240" role="img" aria-labelledby="title desc">
  <title id="title">Capo Horn Lab orbit mark</title>
  <desc id="desc">A red navigational orbit enclosing a precise CH monogram.</desc>
  <defs>
    <linearGradient id="core" x1="34" y1="29" x2="196" y2="214" gradientUnits="userSpaceOnUse">
      <stop stop-color="#FF735C"/>
      <stop offset=".48" stop-color="#E33B2F"/>
      <stop offset="1" stop-color="#8C1717"/>
    </linearGradient>
    <linearGradient id="edge" x1="40" y1="31" x2="189" y2="202" gradientUnits="userSpaceOnUse">
      <stop stop-color="#FFE0D8" stop-opacity=".95"/>
      <stop offset=".36" stop-color="#FF755D" stop-opacity=".52"/>
      <stop offset="1" stop-color="#E33B2F" stop-opacity="0"/>
    </linearGradient>
    <filter id="shadow" x="-40%" y="-40%" width="180%" height="180%"><feDropShadow dx="0" dy="9" stdDeviation="8" flood-color="#57100D" flood-opacity=".48"/></filter>
  </defs>
  <g filter="url(#shadow)">
    <circle cx="120" cy="120" r="88" fill="#101015" stroke="#E33B2F" stroke-width="3"/>
    <circle cx="120" cy="120" r="76" fill="none" stroke="url(#edge)" stroke-width="1.5" opacity=".82"/>
    <path d="M120 24C64 24 27 66 27 120c0 25 10 48 26 65" fill="none" stroke="url(#core)" stroke-width="17" stroke-linecap="round"/>
    <path d="M187 58c17 17 27 38 27 62 0 55-42 98-94 98-22 0-43-8-59-21" fill="none" stroke="#E33B2F" stroke-width="5" stroke-linecap="round" opacity=".82"/>
    <circle cx="183" cy="58" r="8" fill="#FF9B64" stroke="#FFE8DF" stroke-width="2"/>
    <path d="M92 80v80M92 80h22M92 160h22M124 80v80M148 80v80M124 120h24" fill="none" stroke="#F7E8E2" stroke-width="12" stroke-linecap="square"/>
    <path d="M92 80v80M124 80v80M148 80v80M124 120h24" fill="none" stroke="#B72A24" stroke-width="2" opacity=".65"/>
    <path d="M47 176l-12 18 21-4" fill="#FF735C"/>
  </g>
</svg>
